<?xml version="1.0" encoding="utf-8"?>
<!-- Svg Vector Icons : http://www.onlinewebfonts.com/icon -->
<!DOCTYPE svg PUBLIC "-//W3C//DTD SVG 1.1//EN" "http://www.w3.org/Graphics/SVG/1.1/DTD/svg11.dtd">
<svg version="1.1" xmlns="http://www.w3.org/2000/svg" xmlns:xlink="http://www.w3.org/1999/xlink" x="0px" y="0px" viewBox="0 0 1000 1000" enable-background="new 0 0 1000 1000" xml:space="preserve">
<metadata> Svg Vector Icons : http://www.onlinewebfonts.com/icon </metadata>
<g><g><g><path d="M499.7,376.5c-43.8,0-74.8,35.5-74.8,79.3v269.5c0,43.8,31,79.2,74.8,79.2c43.8,0,74.8-35.5,74.8-79.2V455.8C574.5,412,543.5,376.5,499.7,376.5z"/><path d="M500,170.4c-45.2,0-81.9,36.7-81.9,81.9c0,45.2,36.7,81.9,81.9,81.9c45.2,0,81.9-36.7,81.9-81.9C581.9,207.1,545.2,170.4,500,170.4z"/><path d="M500,10C229.8,10,10,229.8,10,500c0,270.2,219.8,490,490,490c270.2,0,490-219.8,490-490C990,229.8,770.2,10,500,10z M500,883.2c-211.3,0-383.2-171.9-383.2-383.2S288.7,116.8,500,116.8c211.3,0,383.1,171.9,383.1,383.2S711.3,883.2,500,883.2z"/></g></g><g></g><g></g><g></g><g></g><g></g><g></g><g></g><g></g><g></g><g></g><g></g><g></g><g></g><g></g><g></g></g>
</svg>